<svg xmlns="http://www.w3.org/2000/svg" viewBox="0 0 380 60">
  <!-- Orange B square -->
  <rect x="0" y="0" width="60" height="60" rx="5" fill="#F26522"/>
  <path d="M14 12h22c8 0 13 4 13 10 0 4-2 7-6 9 5 2 8 6 8 11 0 8-6 13-15 13H14V12zm8 16h12c3.5 0 6-2 6-5s-2.5-5-6-5H22v10zm0 18h13c4 0 7-2.5 7-6s-3-6-7-6H22v12z" fill="white"/>
  <!-- Bloomberg wordmark -->
  <text x="76" y="45" font-family="'Helvetica Neue', 'Arial Black', Helvetica, Arial, sans-serif" font-weight="900" font-size="42" letter-spacing="-1.5" fill="white">Bloomberg</text>
</svg>
